Coordinates
version=1
nRows=17
nColumns=24
inDegrees=yes

Units are S.I. units (second, meters, Newtons, ...)
Angles are in degrees.

endheader
time	pelvis_tilt	pelvis_list	pelvis_rotation	pelvis_tx	pelvis_ty	pelvis_tz	hip_flexion_r	hip_adduction_r	hip_rotation_r	knee_angle_r	ankle_angle_r	subtalar_angle_r	mtp_angle_r	hip_flexion_l	hip_adduction_l	hip_rotation_l	knee_angle_l	ankle_angle_l	subtalar_angle_l	mtp_angle_l	lumbar_extension	lumbar_bending	lumbar_rotation
      5.93000000	     -2.98119374	      4.81273490	     14.27496130	     -1.30795178	      0.65666357	     -0.19183086	     24.00741360	     -4.09939413	    -12.05107531	     -1.89896338	    -11.72620401	     -2.25684810	      0.00000000	    -12.57634102	      7.15447529	      6.26058231	    -17.74853233	     19.90300508	      4.86558809	      0.00000000	    -13.19109151	    -10.15776565	    -16.10343051
      5.94000000	     -2.71616367	      4.28616465	     14.55022467	     -1.29697683	      0.65658976	     -0.19215786	     23.51880236	     -3.32655156	    -10.09645737	     -3.37580537	    -10.05761225	     -4.93296048	      0.00000000	    -13.01344699	      6.20751921	      6.16293663	    -18.84390726	     18.96249681	      5.25882846	      0.00000000	    -13.12043083	     -9.54885080	    -16.33653560
      5.95000000	     -2.54397517	      3.68849949	     14.73399891	     -1.28595340	      0.65657989	     -0.19235741	     23.06278709	     -2.35292410	     -7.53151031	     -4.61042302	     -8.76694550	     -8.28543823	      0.00000000	    -13.22650489	      5.23757378	      6.05836402	    -20.08072502	     17.82748288	      5.58738671	      0.00000000	    -12.88385669	     -8.90189618	    -16.50828540
      5.96000000	     -2.23416996	      3.00410529	     14.78061956	     -1.27491111	      0.65688990	     -0.19241380	     22.47056560	     -1.14101473	     -4.83191594	     -5.73533026	     -7.88791444	    -11.94412798	      0.00000000	    -13.43573313	      4.17639112	      5.83301631	    -21.44981915	     16.41322653	      5.91441423	      0.00000000	    -12.76729134	     -8.13143386	    -16.59103108
      5.97000000	     -1.89783706	      2.25769757	     14.67534441	     -1.26398493	      0.65744546	     -0.19235580	     21.93307939	      0.21244699	     -2.23445546	     -6.91712990	     -7.34816324	    -15.57729498	      0.00000000	    -13.46353187	      3.10277353	      5.47034381	    -23.06273225	     14.68391461	      6.16670398	      0.00000000	    -12.67207410	     -7.27739672	    -16.58498192
      5.98000000	     -1.51588852	      1.55585160	     14.39299288	     -1.25327997	      0.65832360	     -0.19217850	     21.43926515	      1.56840672	     -0.00642889	     -8.24846215	     -6.67299986	    -18.40026486	      0.00000000	    -13.31194984	      2.11964605	      4.88508259	    -24.95115596	     12.40539667	      6.39707943	      0.00000000	    -12.69640117	     -6.45381988	    -16.50462302
      5.99000000	     -1.20445646	      0.83802824	     14.00926981	     -1.24285163	      0.65939146	     -0.19198032	     21.09296692	      2.89153574	      1.58194933	     -9.68872472	     -5.65459325	    -20.10080336	      0.00000000	    -12.79327954	      1.19068285	      4.17949754	    -27.20250808	      9.61625234	      6.40129265	      0.00000000	    -12.69543357	     -5.59494925	    -16.41686487
      6.00000000	     -0.93243896	      0.12381671	     13.61080732	     -1.23274342	      0.66064746	     -0.19183680	     20.74584197	      4.11280495	      2.45837275	    -11.01363026	     -4.43212676	    -20.75349033	      0.00000000	    -11.90714644	      0.27468534	      3.37047260	    -29.83938301	      6.26540081	      6.33352664	      0.00000000	    -12.73829394	     -4.69604812	    -16.41132793
      6.01000000	     -0.76645754	     -0.47038716	     13.17201586	     -1.22295849	      0.66198564	     -0.19175821	     20.40112328	      5.09896780	      2.81008083	    -12.15880146	     -2.71216718	    -20.37861421	      0.00000000	    -10.68461320	     -0.44284749	      2.69903405	    -32.71289952	      2.27264261	      5.76790879	      0.00000000	    -12.76859511	     -3.92198804	    -16.40412099
      6.02000000	     -0.67323214	     -1.05557271	     12.85354141	     -1.21352135	      0.66333269	     -0.19183661	     19.96410366	      5.90476625	      2.44964689	    -12.91478439	     -0.82297479	    -19.11679758	      0.00000000	     -9.07489455	     -1.16698402	      2.15882582	    -35.90768062	     -2.08413221	      5.09870284	      0.00000000	    -12.79776401	     -3.12369865	    -16.52294872
      6.03000000	     -0.61627511	     -1.61159221	     12.62947815	     -1.20442182	      0.66460376	     -0.19201595	     19.38133568	      6.57426062	      1.74407319	    -13.26756381	      0.97193552	    -17.54608129	      0.00000000	     -7.18155100	     -1.85829991	      1.83677065	    -39.33225903	     -6.48387168	      4.38318236	      0.00000000	    -12.86700156	     -2.33839505	    -16.65909833
      6.04000000	     -0.56862527	     -2.13834382	     12.44348060	     -1.19563663	      0.66574365	     -0.19218650	     18.63671089	      7.16537937	      0.81130812	    -13.22979299	      2.61411506	    -15.68574051	      0.00000000	     -5.07293001	     -2.53310136	      1.60438726	    -42.93833184	    -10.50396170	      3.75640214	      0.00000000	    -12.98713445	     -1.61650029	    -16.70927554
      6.05000000	     -0.52332127	     -2.64670797	     12.32579641	     -1.18714348	      0.66668079	     -0.19233894	     17.74083219	      7.75734026	      0.10991899	    -12.85331113	      3.86340025	    -14.56636008	      0.00000000	     -2.81404586	     -3.14731551	      1.60945648	    -46.63915959	    -13.79233792	      2.87986972	      0.00000000	    -13.13904255	     -0.94765658	    -16.64521902
      6.06000000	     -0.47391475	     -3.09426754	     12.09544320	     -1.17893906	      0.66746498	     -0.19229234	     16.78788570	      8.35017412	     -0.41939833	    -12.35352309	      4.98305603	    -13.39260335	      0.00000000	     -0.49447273	     -3.66354605	      1.59891608	    -50.32989774	    -16.02985847	      2.00784870	      0.00000000	    -13.37500261	     -0.43649840	    -16.36241892
      6.07000000	     -0.31629137	     -3.53443937	     11.71205496	     -1.17093361	      0.66817483	     -0.19200460	     15.66508027	      9.06931886	     -0.34440976	    -11.73559122	      5.59187869	    -13.00130058	      0.00000000	      1.73119867	     -4.17938899	      1.48102103	    -53.93949431	    -16.86701636	      1.08886506	      0.00000000	    -13.75644007	      0.00509988	    -15.74439529
      6.08000000	     -0.35523022	     -3.80019020	     11.21601867	     -1.16317346	      0.66872796	     -0.19161099	     14.79065228	      9.59667736	     -0.11095809	    -11.27718868	      6.46612834	    -12.39733907	      0.00000000	      4.10303554	     -4.37879468	      1.40005400	    -57.30604915	    -16.68672997	     -0.44655383	      0.00000000	    -13.96292428	      0.13711981	    -14.99398691
      6.09000000	     -0.23196795	     -4.02724640	     10.53435038	     -1.15557069	      0.66940427	     -0.19101216	     13.76779405	     10.18899609	      0.60866721	    -10.90511952	      7.10988710	    -12.22529384	      0.00000000	      6.23336327	     -4.57039931	      1.15507342	    -60.39052972	    -15.25445501	     -2.03927616	      0.00000000	    -14.39229999	      0.19690764	    -14.03391134
